<svg id="Capa_1" enable-background="new 0 0 512 512" height="512" viewBox="0 0 512 512" width="512" xmlns="http://www.w3.org/2000/svg"><g><path d="m301 497v-122h70v122z" fill="#aca09b"/><path d="m336 375h35v122h-35z" fill="#8e7d78"/><path d="m196 90c-24.813 0-45-20.187-45-45s20.187-45 45-45 45 20.187 45 45-20.187 45-45 45z" fill="#e4eff8"/><path d="m466 90c-24.813 0-45-20.187-45-45s20.187-45 45-45 45 20.187 45 45-20.187 45-45 45z" fill="#c6def0"/><g fill="#e4eff8"><path d="m116 240c-24.813 0-45-20.187-45-45s20.187-45 45-45 45 20.187 45 45-20.187 45-45 45z"/><path d="m76 450c-24.813 0-45-20.187-45-45s20.187-45 45-45 45 20.187 45 45-20.187 45-45 45z"/><path d="m76 90c-3.839 0-7.678-1.465-10.606-4.394l-60-60c-5.858-5.857-5.858-15.355 0-21.213 5.857-5.857 15.355-5.857 21.213 0l60 60c5.858 5.857 5.858 15.355 0 21.213-2.929 2.929-6.768 4.394-10.607 4.394z"/><path d="m36 170c-3.839 0-7.678-1.465-10.606-4.394l-20-20c-5.858-5.857-5.858-15.355 0-21.213 5.857-5.857 15.355-5.857 21.213 0l20 20c5.858 5.857 5.858 15.355 0 21.213-2.929 2.929-6.768 4.394-10.607 4.394z"/><path d="m136 330c-3.839 0-7.678-1.465-10.606-4.394l-20-20c-5.858-5.857-5.858-15.355 0-21.213 5.857-5.857 15.355-5.857 21.213 0l20 20c5.858 5.857 5.858 15.355 0 21.213-2.929 2.929-6.768 4.394-10.607 4.394z"/><path d="m146 130c-3.839 0-7.678-1.465-10.606-4.394l-20-20c-5.858-5.857-5.858-15.355 0-21.213 5.857-5.857 15.355-5.857 21.213 0l20 20c5.858 5.857 5.858 15.355 0 21.213-2.929 2.929-6.768 4.394-10.607 4.394z"/><path d="m36 350c-3.839 0-7.678-1.465-10.606-4.394l-20-20c-5.858-5.857-5.858-15.355 0-21.213 5.857-5.857 15.355-5.857 21.213 0l20 20c5.858 5.857 5.858 15.355 0 21.213-2.929 2.929-6.768 4.394-10.607 4.394z"/><path d="m56 280c-3.839 0-7.678-1.465-10.606-4.394l-40-40c-5.858-5.857-5.858-15.355 0-21.213 5.857-5.857 15.355-5.857 21.213 0l40 40c5.858 5.857 5.858 15.355 0 21.213-2.929 2.929-6.768 4.394-10.607 4.394z"/><path d="m466 390h-260c-5.503 0-10.565-3.014-13.188-7.853-2.623-4.838-2.385-10.725.62-15.336l56.56-86.811h-33.992c-5.545 0-10.638-3.06-13.243-7.955s-2.295-10.828.803-15.427l58.363-86.618h-25.923c-5.619 0-10.767-3.141-13.337-8.137-2.571-4.996-2.134-11.01 1.131-15.582l100-140c2.816-3.941 7.362-6.281 12.206-6.281s9.39 2.34 12.206 6.281l100 140c3.266 4.572 3.703 10.586 1.131 15.582-2.57 4.996-7.718 8.137-13.337 8.137h-25.923l58.362 86.618c3.099 4.599 3.408 10.532.803 15.427-2.604 4.895-7.697 7.955-13.242 7.955h-33.992l56.56 86.812c3.004 4.611 3.242 10.498.62 15.336-2.623 4.838-7.685 7.852-13.188 7.852z"/></g><path d="m466 390c5.503 0 10.565-3.014 13.187-7.853 2.623-4.838 2.385-10.725-.62-15.336l-56.559-86.811h33.992c5.545 0 10.638-3.06 13.243-7.955 2.604-4.895 2.295-10.828-.803-15.427l-58.363-86.618h25.923c5.619 0 10.767-3.141 13.337-8.137 2.571-4.996 2.134-11.01-1.131-15.582l-100-140c-2.816-3.941-7.362-6.281-12.206-6.281v390z" fill="#c6def0"/><path d="m497 512h-482c-8.284 0-15-6.716-15-15s6.716-15 15-15h482c8.284 0 15 6.716 15 15s-6.716 15-15 15z" fill="#e4eff8"/><path d="m497 482h-161v30h161c8.284 0 15-6.716 15-15s-6.716-15-15-15z" fill="#c6def0"/></g></svg>