<?xml version="1.0" encoding="UTF-8" standalone="no"?>
<!DOCTYPE svg PUBLIC "-//W3C//DTD SVG 1.1//EN"
 "http://www.w3.org/Graphics/SVG/1.1/DTD/svg11.dtd">
<!-- Generated by graphviz version 2.38.0 (20140413.2041)
 -->
<!-- Title: G Pages: 1 -->
<svg width="1350pt" height="1085pt"
 viewBox="0.00 0.00 1350.20 1084.69" xmlns="http://www.w3.org/2000/svg" xmlns:xlink="http://www.w3.org/1999/xlink">
<g id="graph0" class="graph" transform="scale(1 1) rotate(0) translate(21.6 1063.09)">
<title>G</title>
<polygon fill="#111111" stroke="none" points="-21.6,21.6 -21.6,-1063.09 1328.6,-1063.09 1328.6,21.6 -21.6,21.6"/>
<!-- client/articles/Edit.js -->
<g id="node1" class="node"><title>client/articles/Edit.js</title>
<path fill="none" stroke="#c6c5fe" d="M608.833,-455.031C608.833,-455.031 483.167,-455.031 483.167,-455.031 479.333,-455.031 475.5,-451.197 475.5,-447.364 475.5,-447.364 475.5,-439.697 475.5,-439.697 475.5,-435.864 479.333,-432.031 483.167,-432.031 483.167,-432.031 608.833,-432.031 608.833,-432.031 612.667,-432.031 616.5,-435.864 616.5,-439.697 616.5,-439.697 616.5,-447.364 616.5,-447.364 616.5,-451.197 612.667,-455.031 608.833,-455.031"/>
<text text-anchor="middle" x="546" y="-439.831" font-family="Arial" font-size="14.00" fill="#c6c5fe">client/articles/Edit.js</text>
</g>
<!-- client/articles/form.js -->
<g id="node2" class="node"><title>client/articles/form.js</title>
<path fill="none" stroke="#c6c5fe" d="M851.333,-517.031C851.333,-517.031 720.667,-517.031 720.667,-517.031 716.833,-517.031 713,-513.197 713,-509.364 713,-509.364 713,-501.697 713,-501.697 713,-497.864 716.833,-494.031 720.667,-494.031 720.667,-494.031 851.333,-494.031 851.333,-494.031 855.167,-494.031 859,-497.864 859,-501.697 859,-501.697 859,-509.364 859,-509.364 859,-513.197 855.167,-517.031 851.333,-517.031"/>
<text text-anchor="middle" x="786" y="-501.831" font-family="Arial" font-size="14.00" fill="#c6c5fe">client/articles/form.js</text>
</g>
<!-- client/articles/Edit.js&#45;&gt;client/articles/form.js -->
<g id="edge1" class="edge"><title>client/articles/Edit.js&#45;&gt;client/articles/form.js</title>
<path fill="none" stroke="#757575" d="M601.987,-455.04C613.894,-457.693 626.394,-460.6 638,-463.531 671.379,-471.959 708.671,-482.628 737.341,-491.104"/>
<polygon fill="#757575" stroke="#757575" points="736.52,-494.511 747.103,-494.004 738.513,-487.801 736.52,-494.511"/>
</g>
<!-- client/common/layout.js -->
<g id="node3" class="node"><title>client/common/layout.js</title>
<path fill="none" stroke="#c6c5fe" d="M860.333,-701.031C860.333,-701.031 711.667,-701.031 711.667,-701.031 707.833,-701.031 704,-697.197 704,-693.364 704,-693.364 704,-685.697 704,-685.697 704,-681.864 707.833,-678.031 711.667,-678.031 711.667,-678.031 860.333,-678.031 860.333,-678.031 864.167,-678.031 868,-681.864 868,-685.697 868,-685.697 868,-693.364 868,-693.364 868,-697.197 864.167,-701.031 860.333,-701.031"/>
<text text-anchor="middle" x="786" y="-685.831" font-family="Arial" font-size="14.00" fill="#c6c5fe">client/common/layout.js</text>
</g>
<!-- client/articles/Edit.js&#45;&gt;client/common/layout.js -->
<g id="edge2" class="edge"><title>client/articles/Edit.js&#45;&gt;client/common/layout.js</title>
<path fill="none" stroke="#757575" d="M616.55,-450.454C624.448,-453.556 631.852,-457.79 638,-463.531 679.63,-502.407 644.046,-538.083 674,-586.531 696.013,-622.135 733.584,-653.295 758.844,-671.766"/>
<polygon fill="#757575" stroke="#757575" points="757.049,-674.786 767.219,-677.757 761.122,-669.092 757.049,-674.786"/>
</g>
<!-- client/lib/utils.js -->
<g id="node5" class="node"><title>client/lib/utils.js</title>
<path fill="none" stroke="#c6c5fe" d="M1090.33,-742.031C1090.33,-742.031 995.667,-742.031 995.667,-742.031 991.833,-742.031 988,-738.197 988,-734.364 988,-734.364 988,-726.697 988,-726.697 988,-722.864 991.833,-719.031 995.667,-719.031 995.667,-719.031 1090.33,-719.031 1090.33,-719.031 1094.17,-719.031 1098,-722.864 1098,-726.697 1098,-726.697 1098,-734.364 1098,-734.364 1098,-738.197 1094.17,-742.031 1090.33,-742.031"/>
<text text-anchor="middle" x="1043" y="-726.831" font-family="Arial" font-size="14.00" fill="#c6c5fe">client/lib/utils.js</text>
</g>
<!-- client/articles/form.js&#45;&gt;client/lib/utils.js -->
<g id="edge13" class="edge"><title>client/articles/form.js&#45;&gt;client/lib/utils.js</title>
<path fill="none" stroke="#757575" d="M845.754,-517.048C864.23,-523.03 883.557,-532.035 898,-545.531 927.082,-572.705 911.153,-594.939 934,-627.531 957.842,-661.543 994.176,-693.349 1018.01,-712.373"/>
<polygon fill="#757575" stroke="#757575" points="1016.15,-715.363 1026.17,-718.785 1020.47,-709.857 1016.15,-715.363"/>
</g>
<!-- client/components/tagsSelect.js -->
<g id="node10" class="node"><title>client/components/tagsSelect.js</title>
<path fill="none" stroke="#cfffac" d="M1144.33,-517.031C1144.33,-517.031 941.667,-517.031 941.667,-517.031 937.833,-517.031 934,-513.197 934,-509.364 934,-509.364 934,-501.697 934,-501.697 934,-497.864 937.833,-494.031 941.667,-494.031 941.667,-494.031 1144.33,-494.031 1144.33,-494.031 1148.17,-494.031 1152,-497.864 1152,-501.697 1152,-501.697 1152,-509.364 1152,-509.364 1152,-513.197 1148.17,-517.031 1144.33,-517.031"/>
<text text-anchor="middle" x="1043" y="-501.831" font-family="Arial" font-size="14.00" fill="#cfffac">client/components/tagsSelect.js</text>
</g>
<!-- client/articles/form.js&#45;&gt;client/components/tagsSelect.js -->
<g id="edge11" class="edge"><title>client/articles/form.js&#45;&gt;client/components/tagsSelect.js</title>
<path fill="none" stroke="#757575" d="M859.05,-505.531C879.23,-505.531 901.711,-505.531 923.816,-505.531"/>
<polygon fill="#757575" stroke="#757575" points="923.936,-509.031 933.936,-505.531 923.936,-502.031 923.936,-509.031"/>
</g>
<!-- client/lib/context.js -->
<g id="node11" class="node"><title>client/lib/context.js</title>
<path fill="none" stroke="#cfffac" d="M1100.83,-619.031C1100.83,-619.031 985.167,-619.031 985.167,-619.031 981.333,-619.031 977.5,-615.197 977.5,-611.364 977.5,-611.364 977.5,-603.697 977.5,-603.697 977.5,-599.864 981.333,-596.031 985.167,-596.031 985.167,-596.031 1100.83,-596.031 1100.83,-596.031 1104.67,-596.031 1108.5,-599.864 1108.5,-603.697 1108.5,-603.697 1108.5,-611.364 1108.5,-611.364 1108.5,-615.197 1104.67,-619.031 1100.83,-619.031"/>
<text text-anchor="middle" x="1043" y="-603.831" font-family="Arial" font-size="14.00" fill="#cfffac">client/lib/context.js</text>
</g>
<!-- client/articles/form.js&#45;&gt;client/lib/context.js -->
<g id="edge12" class="edge"><title>client/articles/form.js&#45;&gt;client/lib/context.js</title>
<path fill="none" stroke="#757575" d="M820.714,-517.082C842.819,-524.803 872.281,-535.371 898,-545.531 935.641,-560.401 978.136,-578.913 1007.15,-591.82"/>
<polygon fill="#757575" stroke="#757575" points="1005.88,-595.089 1016.44,-595.969 1008.74,-588.697 1005.88,-595.089"/>
</g>
<!-- client/common/layout.js&#45;&gt;client/lib/utils.js -->
<g id="edge24" class="edge"><title>client/common/layout.js&#45;&gt;client/lib/utils.js</title>
<path fill="none" stroke="#757575" d="M858.71,-701.061C896.143,-707.079 941.568,-714.383 977.831,-720.213"/>
<polygon fill="#757575" stroke="#757575" points="977.373,-723.685 987.802,-721.817 978.484,-716.773 977.373,-723.685"/>
</g>
<!-- client/common/layout.js&#45;&gt;client/lib/context.js -->
<g id="edge23" class="edge"><title>client/common/layout.js&#45;&gt;client/lib/context.js</title>
<path fill="none" stroke="#757575" d="M822.994,-677.956C868.462,-663.335 946.742,-638.163 996.361,-622.207"/>
<polygon fill="#757575" stroke="#757575" points="997.74,-625.44 1006.19,-619.047 995.597,-618.776 997.74,-625.44"/>
</g>
<!-- client/articles/Index.js -->
<g id="node4" class="node"><title>client/articles/Index.js</title>
<path fill="none" stroke="#c6c5fe" d="M614.333,-865.031C614.333,-865.031 477.667,-865.031 477.667,-865.031 473.833,-865.031 470,-861.197 470,-857.364 470,-857.364 470,-849.697 470,-849.697 470,-845.864 473.833,-842.031 477.667,-842.031 477.667,-842.031 614.333,-842.031 614.333,-842.031 618.167,-842.031 622,-845.864 622,-849.697 622,-849.697 622,-857.364 622,-857.364 622,-861.197 618.167,-865.031 614.333,-865.031"/>
<text text-anchor="middle" x="546" y="-849.831" font-family="Arial" font-size="14.00" fill="#c6c5fe">client/articles/Index.js</text>
</g>
<!-- client/articles/Index.js&#45;&gt;client/common/layout.js -->
<g id="edge3" class="edge"><title>client/articles/Index.js&#45;&gt;client/common/layout.js</title>
<path fill="none" stroke="#757575" d="M622.369,-844.063C628.071,-841.294 633.389,-837.837 638,-833.531 679.63,-794.655 631.804,-748.792 674,-710.531 679.976,-705.112 686.898,-700.892 694.306,-697.626"/>
<polygon fill="#757575" stroke="#757575" points="695.808,-700.8 703.917,-693.981 693.325,-694.255 695.808,-700.8"/>
</g>
<!-- client/articles/Index.js&#45;&gt;client/lib/utils.js -->
<g id="edge4" class="edge"><title>client/articles/Index.js&#45;&gt;client/lib/utils.js</title>
<path fill="none" stroke="#757575" d="M622.154,-853.744C694.538,-851.926 806.251,-843.75 898,-813.531 943.752,-798.462 991.066,-767.753 1018.45,-748.208"/>
<polygon fill="#757575" stroke="#757575" points="1020.57,-750.993 1026.61,-742.289 1016.46,-745.325 1020.57,-750.993"/>
</g>
<!-- lib/sharedUtils.js -->
<g id="node17" class="node"><title>lib/sharedUtils.js</title>
<path fill="none" stroke="#cfffac" d="M1299.33,-496.031C1299.33,-496.031 1195.67,-496.031 1195.67,-496.031 1191.83,-496.031 1188,-492.197 1188,-488.364 1188,-488.364 1188,-480.697 1188,-480.697 1188,-476.864 1191.83,-473.031 1195.67,-473.031 1195.67,-473.031 1299.33,-473.031 1299.33,-473.031 1303.17,-473.031 1307,-476.864 1307,-480.697 1307,-480.697 1307,-488.364 1307,-488.364 1307,-492.197 1303.17,-496.031 1299.33,-496.031"/>
<text text-anchor="middle" x="1247.5" y="-480.831" font-family="Arial" font-size="14.00" fill="#cfffac">lib/sharedUtils.js</text>
</g>
<!-- client/lib/utils.js&#45;&gt;lib/sharedUtils.js -->
<g id="edge25" class="edge"><title>client/lib/utils.js&#45;&gt;lib/sharedUtils.js</title>
<path fill="none" stroke="#757575" d="M1058.27,-718.755C1079.92,-700.502 1121.75,-663.703 1152,-627.531 1185.96,-586.925 1218.36,-533.702 1234.96,-505.004"/>
<polygon fill="#757575" stroke="#757575" points="1238.03,-506.683 1239.97,-496.266 1231.96,-503.203 1238.03,-506.683"/>
</g>
<!-- client/articles/New.js -->
<g id="node6" class="node"><title>client/articles/New.js</title>
<path fill="none" stroke="#c6c5fe" d="M609.833,-496.031C609.833,-496.031 482.167,-496.031 482.167,-496.031 478.333,-496.031 474.5,-492.197 474.5,-488.364 474.5,-488.364 474.5,-480.697 474.5,-480.697 474.5,-476.864 478.333,-473.031 482.167,-473.031 482.167,-473.031 609.833,-473.031 609.833,-473.031 613.667,-473.031 617.5,-476.864 617.5,-480.697 617.5,-480.697 617.5,-488.364 617.5,-488.364 617.5,-492.197 613.667,-496.031 609.833,-496.031"/>
<text text-anchor="middle" x="546" y="-480.831" font-family="Arial" font-size="14.00" fill="#c6c5fe">client/articles/New.js</text>
</g>
<!-- client/articles/New.js&#45;&gt;client/articles/form.js -->
<g id="edge5" class="edge"><title>client/articles/New.js&#45;&gt;client/articles/form.js</title>
<path fill="none" stroke="#757575" d="M617.763,-490.775C644.489,-493.133 675.123,-495.836 702.808,-498.279"/>
<polygon fill="#757575" stroke="#757575" points="702.593,-501.773 712.862,-499.166 703.208,-494.8 702.593,-501.773"/>
</g>
<!-- client/articles/New.js&#45;&gt;client/common/layout.js -->
<g id="edge6" class="edge"><title>client/articles/New.js&#45;&gt;client/common/layout.js</title>
<path fill="none" stroke="#757575" d="M617.711,-492.936C625.044,-495.828 631.996,-499.608 638,-504.531 668.78,-529.766 650.931,-554.096 674,-586.531 698.534,-621.026 736.117,-652.875 760.629,-671.761"/>
<polygon fill="#757575" stroke="#757575" points="758.627,-674.635 768.711,-677.883 762.854,-669.055 758.627,-674.635"/>
</g>
<!-- client/articles/Show.js -->
<g id="node7" class="node"><title>client/articles/Show.js</title>
<path fill="none" stroke="#c6c5fe" d="M613.833,-988.031C613.833,-988.031 478.167,-988.031 478.167,-988.031 474.333,-988.031 470.5,-984.197 470.5,-980.364 470.5,-980.364 470.5,-972.697 470.5,-972.697 470.5,-968.864 474.333,-965.031 478.167,-965.031 478.167,-965.031 613.833,-965.031 613.833,-965.031 617.667,-965.031 621.5,-968.864 621.5,-972.697 621.5,-972.697 621.5,-980.364 621.5,-980.364 621.5,-984.197 617.667,-988.031 613.833,-988.031"/>
<text text-anchor="middle" x="546" y="-972.831" font-family="Arial" font-size="14.00" fill="#c6c5fe">client/articles/Show.js</text>
</g>
<!-- client/articles/Show.js&#45;&gt;client/common/layout.js -->
<g id="edge9" class="edge"><title>client/articles/Show.js&#45;&gt;client/common/layout.js</title>
<path fill="none" stroke="#757575" d="M621.749,-968.391C627.809,-965.381 633.37,-961.502 638,-956.531 713.31,-875.672 597.511,-790.275 674,-710.531 679.728,-704.56 686.582,-699.986 694.036,-696.512"/>
<polygon fill="#757575" stroke="#757575" points="695.741,-699.602 703.759,-692.676 693.172,-693.09 695.741,-699.602"/>
</g>
<!-- client/articles/Show.js&#45;&gt;client/lib/utils.js -->
<g id="edge10" class="edge"><title>client/articles/Show.js&#45;&gt;client/lib/utils.js</title>
<path fill="none" stroke="#757575" d="M605.723,-964.967C692.21,-947.243 848.905,-912.284 898,-882.531 955.968,-847.4 1005.89,-782.802 1028.73,-750.304"/>
<polygon fill="#757575" stroke="#757575" points="1031.64,-752.257 1034.44,-742.04 1025.88,-748.279 1031.64,-752.257"/>
</g>
<!-- client/articles/styles.module.scss -->
<g id="node8" class="node"><title>client/articles/styles.module.scss</title>
<path fill="none" stroke="#cfffac" d="M890.333,-988.031C890.333,-988.031 681.667,-988.031 681.667,-988.031 677.833,-988.031 674,-984.197 674,-980.364 674,-980.364 674,-972.697 674,-972.697 674,-968.864 677.833,-965.031 681.667,-965.031 681.667,-965.031 890.333,-965.031 890.333,-965.031 894.167,-965.031 898,-968.864 898,-972.697 898,-972.697 898,-980.364 898,-980.364 898,-984.197 894.167,-988.031 890.333,-988.031"/>
<text text-anchor="middle" x="786" y="-972.831" font-family="Arial" font-size="14.00" fill="#cfffac">client/articles/styles.module.scss</text>
</g>
<!-- client/articles/Show.js&#45;&gt;client/articles/styles.module.scss -->
<g id="edge7" class="edge"><title>client/articles/Show.js&#45;&gt;client/articles/styles.module.scss</title>
<path fill="none" stroke="#757575" d="M621.652,-976.531C634.925,-976.531 649.058,-976.531 663.242,-976.531"/>
<polygon fill="#757575" stroke="#757575" points="663.569,-980.031 673.569,-976.531 663.569,-973.031 663.569,-980.031"/>
</g>
<!-- client/comments/form.js -->
<g id="node9" class="node"><title>client/comments/form.js</title>
<path fill="none" stroke="#c6c5fe" d="M861.833,-804.031C861.833,-804.031 710.167,-804.031 710.167,-804.031 706.333,-804.031 702.5,-800.197 702.5,-796.364 702.5,-796.364 702.5,-788.697 702.5,-788.697 702.5,-784.864 706.333,-781.031 710.167,-781.031 710.167,-781.031 861.833,-781.031 861.833,-781.031 865.667,-781.031 869.5,-784.864 869.5,-788.697 869.5,-788.697 869.5,-796.364 869.5,-796.364 869.5,-800.197 865.667,-804.031 861.833,-804.031"/>
<text text-anchor="middle" x="786" y="-788.831" font-family="Arial" font-size="14.00" fill="#c6c5fe">client/comments/form.js</text>
</g>
<!-- client/articles/Show.js&#45;&gt;client/comments/form.js -->
<g id="edge8" class="edge"><title>client/articles/Show.js&#45;&gt;client/comments/form.js</title>
<path fill="none" stroke="#757575" d="M619.624,-964.978C626.044,-962.658 632.272,-959.873 638,-956.531 640.075,-955.32 729.551,-854.867 767.872,-811.793"/>
<polygon fill="#757575" stroke="#757575" points="770.575,-814.019 774.606,-804.221 765.345,-809.367 770.575,-814.019"/>
</g>
<!-- client/comments/form.js&#45;&gt;client/lib/utils.js -->
<g id="edge17" class="edge"><title>client/comments/form.js&#45;&gt;client/lib/utils.js</title>
<path fill="none" stroke="#757575" d="M834.366,-781.014C876.814,-770.694 939.189,-755.528 984.487,-744.514"/>
<polygon fill="#757575" stroke="#757575" points="985.566,-747.854 994.456,-742.091 983.912,-741.052 985.566,-747.854"/>
</g>
<!-- client/comments/form.js&#45;&gt;client/lib/context.js -->
<g id="edge16" class="edge"><title>client/comments/form.js&#45;&gt;client/lib/context.js</title>
<path fill="none" stroke="#757575" d="M833.479,-781.009C854.363,-774.459 878.613,-764.852 898,-751.531 917.986,-737.798 917.209,-728.027 934,-710.531 963.4,-679.896 999.415,-646.275 1021.53,-626.045"/>
<polygon fill="#757575" stroke="#757575" points="1023.98,-628.55 1029.01,-619.228 1019.26,-623.377 1023.98,-628.55"/>
</g>
<!-- client/comments/Edit.js -->
<g id="node12" class="node"><title>client/comments/Edit.js</title>
<path fill="none" stroke="#c6c5fe" d="M619.833,-824.031C619.833,-824.031 472.167,-824.031 472.167,-824.031 468.333,-824.031 464.5,-820.197 464.5,-816.364 464.5,-816.364 464.5,-808.697 464.5,-808.697 464.5,-804.864 468.333,-801.031 472.167,-801.031 472.167,-801.031 619.833,-801.031 619.833,-801.031 623.667,-801.031 627.5,-804.864 627.5,-808.697 627.5,-808.697 627.5,-816.364 627.5,-816.364 627.5,-820.197 623.667,-824.031 619.833,-824.031"/>
<text text-anchor="middle" x="546" y="-808.831" font-family="Arial" font-size="14.00" fill="#c6c5fe">client/comments/Edit.js</text>
</g>
<!-- client/comments/Edit.js&#45;&gt;client/common/layout.js -->
<g id="edge15" class="edge"><title>client/comments/Edit.js&#45;&gt;client/common/layout.js</title>
<path fill="none" stroke="#757575" d="M624.896,-800.928C629.573,-798.586 633.997,-795.813 638,-792.531 668.78,-767.296 642.853,-735.311 674,-710.531 680.151,-705.637 687.097,-701.761 694.438,-698.704"/>
<polygon fill="#757575" stroke="#757575" points="695.717,-701.963 703.917,-695.254 693.323,-695.385 695.717,-701.963"/>
</g>
<!-- client/comments/Edit.js&#45;&gt;client/comments/form.js -->
<g id="edge14" class="edge"><title>client/comments/Edit.js&#45;&gt;client/comments/form.js</title>
<path fill="none" stroke="#757575" d="M627.576,-805.76C648.415,-804.009 671.014,-802.109 692.414,-800.311"/>
<polygon fill="#757575" stroke="#757575" points="692.807,-803.791 702.479,-799.465 692.221,-796.815 692.807,-803.791"/>
</g>
<!-- client/common/Index.js -->
<g id="node13" class="node"><title>client/common/Index.js</title>
<path fill="none" stroke="#c6c5fe" d="M619.333,-701.031C619.333,-701.031 472.667,-701.031 472.667,-701.031 468.833,-701.031 465,-697.197 465,-693.364 465,-693.364 465,-685.697 465,-685.697 465,-681.864 468.833,-678.031 472.667,-678.031 472.667,-678.031 619.333,-678.031 619.333,-678.031 623.167,-678.031 627,-681.864 627,-685.697 627,-685.697 627,-693.364 627,-693.364 627,-697.197 623.167,-701.031 619.333,-701.031"/>
<text text-anchor="middle" x="546" y="-685.831" font-family="Arial" font-size="14.00" fill="#c6c5fe">client/common/Index.js</text>
</g>
<!-- client/common/Index.js&#45;&gt;client/common/layout.js -->
<g id="edge18" class="edge"><title>client/common/Index.js&#45;&gt;client/common/layout.js</title>
<path fill="none" stroke="#757575" d="M627.244,-689.531C648.563,-689.531 671.746,-689.531 693.612,-689.531"/>
<polygon fill="#757575" stroke="#757575" points="693.889,-693.031 703.889,-689.531 693.889,-686.031 693.889,-693.031"/>
</g>
<!-- client/common/Session.js -->
<g id="node14" class="node"><title>client/common/Session.js</title>
<path fill="none" stroke="#c6c5fe" d="M627.833,-619.031C627.833,-619.031 464.167,-619.031 464.167,-619.031 460.333,-619.031 456.5,-615.197 456.5,-611.364 456.5,-611.364 456.5,-603.697 456.5,-603.697 456.5,-599.864 460.333,-596.031 464.167,-596.031 464.167,-596.031 627.833,-596.031 627.833,-596.031 631.667,-596.031 635.5,-599.864 635.5,-603.697 635.5,-603.697 635.5,-611.364 635.5,-611.364 635.5,-615.197 631.667,-619.031 627.833,-619.031"/>
<text text-anchor="middle" x="546" y="-603.831" font-family="Arial" font-size="14.00" fill="#c6c5fe">client/common/Session.js</text>
</g>
<!-- client/common/Session.js&#45;&gt;client/common/layout.js -->
<g id="edge19" class="edge"><title>client/common/Session.js&#45;&gt;client/common/layout.js</title>
<path fill="none" stroke="#757575" d="M617.916,-619.114C624.892,-621.428 631.709,-624.203 638,-627.531 657.453,-637.822 654.707,-650.942 674,-661.531 684.039,-667.041 695.183,-671.489 706.424,-675.074"/>
<polygon fill="#757575" stroke="#757575" points="705.721,-678.516 716.304,-678.008 707.714,-671.806 705.721,-678.516"/>
</g>
<!-- client/common/Session.js&#45;&gt;client/lib/utils.js -->
<g id="edge21" class="edge"><title>client/common/Session.js&#45;&gt;client/lib/utils.js</title>
<path fill="none" stroke="#757575" d="M635.586,-617.089C707.359,-626.218 810.562,-642.503 898,-668.531 938.079,-680.461 981.915,-700.402 1010.56,-714.441"/>
<polygon fill="#757575" stroke="#757575" points="1009.16,-717.65 1019.67,-718.956 1012.27,-711.378 1009.16,-717.65"/>
</g>
<!-- client/common/Session.js&#45;&gt;client/lib/context.js -->
<g id="edge20" class="edge"><title>client/common/Session.js&#45;&gt;client/lib/context.js</title>
<path fill="none" stroke="#757575" d="M635.782,-607.531C730.348,-607.531 878.384,-607.531 967.219,-607.531"/>
<polygon fill="#757575" stroke="#757575" points="967.219,-611.031 977.219,-607.531 967.219,-604.031 967.219,-611.031"/>
</g>
<!-- client/common/Structure.js -->
<g id="node15" class="node"><title>client/common/Structure.js</title>
<path fill="none" stroke="#c6c5fe" d="M630.333,-660.031C630.333,-660.031 461.667,-660.031 461.667,-660.031 457.833,-660.031 454,-656.197 454,-652.364 454,-652.364 454,-644.697 454,-644.697 454,-640.864 457.833,-637.031 461.667,-637.031 461.667,-637.031 630.333,-637.031 630.333,-637.031 634.167,-637.031 638,-640.864 638,-644.697 638,-644.697 638,-652.364 638,-652.364 638,-656.197 634.167,-660.031 630.333,-660.031"/>
<text text-anchor="middle" x="546" y="-644.831" font-family="Arial" font-size="14.00" fill="#c6c5fe">client/common/Structure.js</text>
</g>
<!-- client/common/Structure.js&#45;&gt;client/common/layout.js -->
<g id="edge22" class="edge"><title>client/common/Structure.js&#45;&gt;client/common/layout.js</title>
<path fill="none" stroke="#757575" d="M613.93,-660.061C643.205,-665.104 677.718,-671.049 708.049,-676.275"/>
<polygon fill="#757575" stroke="#757575" points="707.712,-679.768 718.161,-678.017 708.9,-672.87 707.712,-679.768"/>
</g>
<!-- client/lib/index.js -->
<g id="node16" class="node"><title>client/lib/index.js</title>
<path fill="none" stroke="#cfffac" d="M111.333,-297.031C111.333,-297.031 7.66667,-297.031 7.66667,-297.031 3.83333,-297.031 0,-293.197 0,-289.364 0,-289.364 0,-281.697 0,-281.697 0,-277.864 3.83333,-274.031 7.66667,-274.031 7.66667,-274.031 111.333,-274.031 111.333,-274.031 115.167,-274.031 119,-277.864 119,-281.697 119,-281.697 119,-289.364 119,-289.364 119,-293.197 115.167,-297.031 111.333,-297.031"/>
<text text-anchor="middle" x="59.5" y="-281.831" font-family="Arial" font-size="14.00" fill="#cfffac">client/lib/index.js</text>
</g>
<!-- client/tags/Edit.js -->
<g id="node18" class="node"><title>client/tags/Edit.js</title>
<path fill="none" stroke="#c6c5fe" d="M599.833,-742.031C599.833,-742.031 492.167,-742.031 492.167,-742.031 488.333,-742.031 484.5,-738.197 484.5,-734.364 484.5,-734.364 484.5,-726.697 484.5,-726.697 484.5,-722.864 488.333,-719.031 492.167,-719.031 492.167,-719.031 599.833,-719.031 599.833,-719.031 603.667,-719.031 607.5,-722.864 607.5,-726.697 607.5,-726.697 607.5,-734.364 607.5,-734.364 607.5,-738.197 603.667,-742.031 599.833,-742.031"/>
<text text-anchor="middle" x="546" y="-726.831" font-family="Arial" font-size="14.00" fill="#c6c5fe">client/tags/Edit.js</text>
</g>
<!-- client/tags/Edit.js&#45;&gt;client/common/layout.js -->
<g id="edge26" class="edge"><title>client/tags/Edit.js&#45;&gt;client/common/layout.js</title>
<path fill="none" stroke="#757575" d="M607.673,-720.079C638.252,-714.811 675.657,-708.367 708.217,-702.758"/>
<polygon fill="#757575" stroke="#757575" points="708.893,-706.193 718.153,-701.046 707.704,-699.295 708.893,-706.193"/>
</g>
<!-- client/tags/form.js -->
<g id="node19" class="node"><title>client/tags/form.js</title>
<path fill="none" stroke="#c6c5fe" d="M842.333,-742.031C842.333,-742.031 729.667,-742.031 729.667,-742.031 725.833,-742.031 722,-738.197 722,-734.364 722,-734.364 722,-726.697 722,-726.697 722,-722.864 725.833,-719.031 729.667,-719.031 729.667,-719.031 842.333,-719.031 842.333,-719.031 846.167,-719.031 850,-722.864 850,-726.697 850,-726.697 850,-734.364 850,-734.364 850,-738.197 846.167,-742.031 842.333,-742.031"/>
<text text-anchor="middle" x="786" y="-726.831" font-family="Arial" font-size="14.00" fill="#c6c5fe">client/tags/form.js</text>
</g>
<!-- client/tags/Edit.js&#45;&gt;client/tags/form.js -->
<g id="edge27" class="edge"><title>client/tags/Edit.js&#45;&gt;client/tags/form.js</title>
<path fill="none" stroke="#757575" d="M607.673,-730.531C639.375,-730.531 678.414,-730.531 711.785,-730.531"/>
<polygon fill="#757575" stroke="#757575" points="711.945,-734.031 721.945,-730.531 711.945,-727.031 711.945,-734.031"/>
</g>
<!-- client/tags/form.js&#45;&gt;client/lib/utils.js -->
<g id="edge33" class="edge"><title>client/tags/form.js&#45;&gt;client/lib/utils.js</title>
<path fill="none" stroke="#757575" d="M850.034,-730.531C888.89,-730.531 938.586,-730.531 977.679,-730.531"/>
<polygon fill="#757575" stroke="#757575" points="977.889,-734.031 987.889,-730.531 977.889,-727.031 977.889,-734.031"/>
</g>
<!-- client/tags/form.js&#45;&gt;client/lib/context.js -->
<g id="edge32" class="edge"><title>client/tags/form.js&#45;&gt;client/lib/context.js</title>
<path fill="none" stroke="#757575" d="M850.05,-724.137C866.096,-721.179 883.028,-716.854 898,-710.531 947.057,-689.814 995.667,-649.964 1021.97,-626.366"/>
<polygon fill="#757575" stroke="#757575" points="1024.66,-628.644 1029.69,-619.32 1019.95,-623.471 1024.66,-628.644"/>
</g>
<!-- client/tags/Index.js -->
<g id="node20" class="node"><title>client/tags/Index.js</title>
<path fill="none" stroke="#c6c5fe" d="M605.333,-1029.03C605.333,-1029.03 486.667,-1029.03 486.667,-1029.03 482.833,-1029.03 479,-1025.2 479,-1021.36 479,-1021.36 479,-1013.7 479,-1013.7 479,-1009.86 482.833,-1006.03 486.667,-1006.03 486.667,-1006.03 605.333,-1006.03 605.333,-1006.03 609.167,-1006.03 613,-1009.86 613,-1013.7 613,-1013.7 613,-1021.36 613,-1021.36 613,-1025.2 609.167,-1029.03 605.333,-1029.03"/>
<text text-anchor="middle" x="546" y="-1013.83" font-family="Arial" font-size="14.00" fill="#c6c5fe">client/tags/Index.js</text>
</g>
<!-- client/tags/Index.js&#45;&gt;client/common/layout.js -->
<g id="edge28" class="edge"><title>client/tags/Index.js&#45;&gt;client/common/layout.js</title>
<path fill="none" stroke="#757575" d="M613.386,-1013.08C622.702,-1009.77 631.349,-1004.82 638,-997.531 724.647,-902.564 585.968,-804.215 674,-710.531 679.777,-704.383 686.746,-699.709 694.343,-696.186"/>
<polygon fill="#757575" stroke="#757575" points="695.856,-699.352 703.884,-692.438 693.297,-692.836 695.856,-699.352"/>
</g>
<!-- client/tags/Index.js&#45;&gt;client/lib/utils.js -->
<g id="edge29" class="edge"><title>client/tags/Index.js&#45;&gt;client/lib/utils.js</title>
<path fill="none" stroke="#757575" d="M597.837,-1029.05C670.562,-1042.55 805.687,-1056.25 898,-997.531 988.648,-939.868 1026.27,-804.57 1037.81,-751.974"/>
<polygon fill="#757575" stroke="#757575" points="1041.26,-752.569 1039.89,-742.064 1034.41,-751.133 1041.26,-752.569"/>
</g>
<!-- client/tags/New.js -->
<g id="node21" class="node"><title>client/tags/New.js</title>
<path fill="none" stroke="#c6c5fe" d="M600.833,-783.031C600.833,-783.031 491.167,-783.031 491.167,-783.031 487.333,-783.031 483.5,-779.197 483.5,-775.364 483.5,-775.364 483.5,-767.697 483.5,-767.697 483.5,-763.864 487.333,-760.031 491.167,-760.031 491.167,-760.031 600.833,-760.031 600.833,-760.031 604.667,-760.031 608.5,-763.864 608.5,-767.697 608.5,-767.697 608.5,-775.364 608.5,-775.364 608.5,-779.197 604.667,-783.031 600.833,-783.031"/>
<text text-anchor="middle" x="546" y="-767.831" font-family="Arial" font-size="14.00" fill="#c6c5fe">client/tags/New.js</text>
</g>
<!-- client/tags/New.js&#45;&gt;client/common/layout.js -->
<g id="edge30" class="edge"><title>client/tags/New.js&#45;&gt;client/common/layout.js</title>
<path fill="none" stroke="#757575" d="M608.737,-763.537C618.94,-760.675 629.085,-756.794 638,-751.531 658.882,-739.203 652.939,-722.551 674,-710.531 680.324,-706.922 687.148,-703.918 694.194,-701.419"/>
<polygon fill="#757575" stroke="#757575" points="695.452,-704.692 703.914,-698.316 693.323,-698.023 695.452,-704.692"/>
</g>
<!-- client/tags/New.js&#45;&gt;client/tags/form.js -->
<g id="edge31" class="edge"><title>client/tags/New.js&#45;&gt;client/tags/form.js</title>
<path fill="none" stroke="#757575" d="M608.6,-760.919C640.055,-755.5 678.545,-748.87 711.536,-743.186"/>
<polygon fill="#757575" stroke="#757575" points="712.324,-746.602 721.584,-741.455 711.135,-739.704 712.324,-746.602"/>
</g>
<!-- client/users/Edit.js -->
<g id="node22" class="node"><title>client/users/Edit.js</title>
<path fill="none" stroke="#c6c5fe" d="M603.833,-537.031C603.833,-537.031 488.167,-537.031 488.167,-537.031 484.333,-537.031 480.5,-533.197 480.5,-529.364 480.5,-529.364 480.5,-521.697 480.5,-521.697 480.5,-517.864 484.333,-514.031 488.167,-514.031 488.167,-514.031 603.833,-514.031 603.833,-514.031 607.667,-514.031 611.5,-517.864 611.5,-521.697 611.5,-521.697 611.5,-529.364 611.5,-529.364 611.5,-533.197 607.667,-537.031 603.833,-537.031"/>
<text text-anchor="middle" x="546" y="-521.831" font-family="Arial" font-size="14.00" fill="#c6c5fe">client/users/Edit.js</text>
</g>
<!-- client/users/Edit.js&#45;&gt;client/common/layout.js -->
<g id="edge34" class="edge"><title>client/users/Edit.js&#45;&gt;client/common/layout.js</title>
<path fill="none" stroke="#757575" d="M611.604,-534.357C620.832,-537.126 629.921,-540.761 638,-545.531 658.882,-557.859 657.09,-569.15 674,-586.531 704.042,-617.41 741.107,-650.962 763.893,-671.112"/>
<polygon fill="#757575" stroke="#757575" points="761.784,-673.918 771.603,-677.899 766.41,-668.664 761.784,-673.918"/>
</g>
<!-- client/users/form.js -->
<g id="node23" class="node"><title>client/users/form.js</title>
<path fill="none" stroke="#c6c5fe" d="M846.333,-578.031C846.333,-578.031 725.667,-578.031 725.667,-578.031 721.833,-578.031 718,-574.197 718,-570.364 718,-570.364 718,-562.697 718,-562.697 718,-558.864 721.833,-555.031 725.667,-555.031 725.667,-555.031 846.333,-555.031 846.333,-555.031 850.167,-555.031 854,-558.864 854,-562.697 854,-562.697 854,-570.364 854,-570.364 854,-574.197 850.167,-578.031 846.333,-578.031"/>
<text text-anchor="middle" x="786" y="-562.831" font-family="Arial" font-size="14.00" fill="#c6c5fe">client/users/form.js</text>
</g>
<!-- client/users/Edit.js&#45;&gt;client/users/form.js -->
<g id="edge35" class="edge"><title>client/users/Edit.js&#45;&gt;client/users/form.js</title>
<path fill="none" stroke="#757575" d="M611.72,-536.68C641.53,-541.815 677.123,-547.947 708.274,-553.313"/>
<polygon fill="#757575" stroke="#757575" points="707.77,-556.778 718.219,-555.027 708.958,-549.88 707.77,-556.778"/>
</g>
<!-- client/users/form.js&#45;&gt;client/lib/utils.js -->
<g id="edge41" class="edge"><title>client/users/form.js&#45;&gt;client/lib/utils.js</title>
<path fill="none" stroke="#757575" d="M806.832,-578.099C829.18,-591.228 866.5,-613.432 898,-633.531 940.19,-660.45 988.225,-693.253 1016.78,-712.985"/>
<polygon fill="#757575" stroke="#757575" points="1015.12,-716.092 1025.33,-718.908 1019.1,-710.337 1015.12,-716.092"/>
</g>
<!-- client/users/form.js&#45;&gt;client/lib/context.js -->
<g id="edge40" class="edge"><title>client/users/form.js&#45;&gt;client/lib/context.js</title>
<path fill="none" stroke="#757575" d="M854.332,-577.357C889.13,-582.952 931.686,-589.794 967.472,-595.548"/>
<polygon fill="#757575" stroke="#757575" points="966.945,-599.008 977.373,-597.14 968.056,-592.097 966.945,-599.008"/>
</g>
<!-- client/users/Index.js -->
<g id="node24" class="node"><title>client/users/Index.js</title>
<path fill="none" stroke="#c6c5fe" d="M609.333,-906.031C609.333,-906.031 482.667,-906.031 482.667,-906.031 478.833,-906.031 475,-902.197 475,-898.364 475,-898.364 475,-890.697 475,-890.697 475,-886.864 478.833,-883.031 482.667,-883.031 482.667,-883.031 609.333,-883.031 609.333,-883.031 613.167,-883.031 617,-886.864 617,-890.697 617,-890.697 617,-898.364 617,-898.364 617,-902.197 613.167,-906.031 609.333,-906.031"/>
<text text-anchor="middle" x="546" y="-890.831" font-family="Arial" font-size="14.00" fill="#c6c5fe">client/users/Index.js</text>
</g>
<!-- client/users/Index.js&#45;&gt;client/common/layout.js -->
<g id="edge36" class="edge"><title>client/users/Index.js&#45;&gt;client/common/layout.js</title>
<path fill="none" stroke="#757575" d="M617.384,-887.819C625.047,-884.668 632.167,-880.365 638,-874.531 690.761,-821.757 620.47,-762.525 674,-710.531 679.886,-704.814 686.812,-700.405 694.282,-697.029"/>
<polygon fill="#757575" stroke="#757575" points="695.925,-700.146 703.997,-693.284 693.407,-693.615 695.925,-700.146"/>
</g>
<!-- client/users/Index.js&#45;&gt;client/lib/utils.js -->
<g id="edge37" class="edge"><title>client/users/Index.js&#45;&gt;client/lib/utils.js</title>
<path fill="none" stroke="#757575" d="M617.184,-895.497C690.201,-894.082 806.439,-884.924 898,-845.531 950.469,-822.957 999.79,-775.938 1024.84,-749.549"/>
<polygon fill="#757575" stroke="#757575" points="1027.55,-751.772 1031.81,-742.071 1022.43,-747 1027.55,-751.772"/>
</g>
<!-- client/users/New.js -->
<g id="node25" class="node"><title>client/users/New.js</title>
<path fill="none" stroke="#c6c5fe" d="M605.333,-578.031C605.333,-578.031 486.667,-578.031 486.667,-578.031 482.833,-578.031 479,-574.197 479,-570.364 479,-570.364 479,-562.697 479,-562.697 479,-558.864 482.833,-555.031 486.667,-555.031 486.667,-555.031 605.333,-555.031 605.333,-555.031 609.167,-555.031 613,-558.864 613,-562.697 613,-562.697 613,-570.364 613,-570.364 613,-574.197 609.167,-578.031 605.333,-578.031"/>
<text text-anchor="middle" x="546" y="-562.831" font-family="Arial" font-size="14.00" fill="#c6c5fe">client/users/New.js</text>
</g>
<!-- client/users/New.js&#45;&gt;client/common/layout.js -->
<g id="edge38" class="edge"><title>client/users/New.js&#45;&gt;client/common/layout.js</title>
<path fill="none" stroke="#757575" d="M613.106,-577.812C621.65,-580.207 630.15,-583.084 638,-586.531 687.647,-608.331 737.715,-648.08 764.697,-671.308"/>
<polygon fill="#757575" stroke="#757575" points="762.468,-674.008 772.303,-677.947 767.071,-668.734 762.468,-674.008"/>
</g>
<!-- client/users/New.js&#45;&gt;client/users/form.js -->
<g id="edge39" class="edge"><title>client/users/New.js&#45;&gt;client/users/form.js</title>
<path fill="none" stroke="#757575" d="M613.296,-566.531C642.583,-566.531 677.208,-566.531 707.665,-566.531"/>
<polygon fill="#757575" stroke="#757575" points="707.82,-570.031 717.82,-566.531 707.82,-563.031 707.82,-570.031"/>
</g>
<!-- knexfile.js -->
<g id="node26" class="node"><title>knexfile.js</title>
<path fill="none" stroke="#cfffac" d="M1074.83,-291.031C1074.83,-291.031 1011.17,-291.031 1011.17,-291.031 1007.33,-291.031 1003.5,-287.197 1003.5,-283.364 1003.5,-283.364 1003.5,-275.697 1003.5,-275.697 1003.5,-271.864 1007.33,-268.031 1011.17,-268.031 1011.17,-268.031 1074.83,-268.031 1074.83,-268.031 1078.67,-268.031 1082.5,-271.864 1082.5,-275.697 1082.5,-275.697 1082.5,-283.364 1082.5,-283.364 1082.5,-287.197 1078.67,-291.031 1074.83,-291.031"/>
<text text-anchor="middle" x="1043" y="-275.831" font-family="Arial" font-size="14.00" fill="#cfffac">knexfile.js</text>
</g>
<!-- lib/secure.js -->
<g id="node27" class="node"><title>lib/secure.js</title>
<path fill="none" stroke="#cfffac" d="M824.333,-373.031C824.333,-373.031 747.667,-373.031 747.667,-373.031 743.833,-373.031 740,-369.197 740,-365.364 740,-365.364 740,-357.697 740,-357.697 740,-353.864 743.833,-350.031 747.667,-350.031 747.667,-350.031 824.333,-350.031 824.333,-350.031 828.167,-350.031 832,-353.864 832,-357.697 832,-357.697 832,-365.364 832,-365.364 832,-369.197 828.167,-373.031 824.333,-373.031"/>
<text text-anchor="middle" x="786" y="-357.831" font-family="Arial" font-size="14.00" fill="#cfffac">lib/secure.js</text>
</g>
<!-- lib/utils.js -->
<g id="node28" class="node"><title>lib/utils.js</title>
<path fill="none" stroke="#c6c5fe" d="M815.333,-251.031C815.333,-251.031 756.667,-251.031 756.667,-251.031 752.833,-251.031 749,-247.197 749,-243.364 749,-243.364 749,-235.697 749,-235.697 749,-231.864 752.833,-228.031 756.667,-228.031 756.667,-228.031 815.333,-228.031 815.333,-228.031 819.167,-228.031 823,-231.864 823,-235.697 823,-235.697 823,-243.364 823,-243.364 823,-247.197 819.167,-251.031 815.333,-251.031"/>
<text text-anchor="middle" x="786" y="-235.831" font-family="Arial" font-size="14.00" fill="#c6c5fe">lib/utils.js</text>
</g>
<!-- lib/utils.js&#45;&gt;client/lib/context.js -->
<g id="edge42" class="edge"><title>lib/utils.js&#45;&gt;client/lib/context.js</title>
<path fill="none" stroke="#757575" d="M806.159,-251.247C831.485,-267.813 875.52,-300.563 898,-340.531 939.065,-413.539 889.733,-454.419 934,-525.531 951.982,-554.418 984.085,-576.825 1008.63,-590.861"/>
<polygon fill="#757575" stroke="#757575" points="1007.18,-594.056 1017.63,-595.826 1010.56,-587.928 1007.18,-594.056"/>
</g>
<!-- lib/utils.js&#45;&gt;lib/sharedUtils.js -->
<g id="edge44" class="edge"><title>lib/utils.js&#45;&gt;lib/sharedUtils.js</title>
<path fill="none" stroke="#757575" d="M823.144,-229.865C893.631,-213.296 1051.34,-187.67 1152,-258.531 1220.91,-307.042 1239.76,-415.866 1244.76,-462.564"/>
<polygon fill="#757575" stroke="#757575" points="1241.3,-463.156 1245.74,-472.779 1248.27,-462.492 1241.3,-463.156"/>
</g>
<!-- lib/utils.js&#45;&gt;knexfile.js -->
<g id="edge43" class="edge"><title>lib/utils.js&#45;&gt;knexfile.js</title>
<path fill="none" stroke="#757575" d="M823.264,-245.219C867.809,-252.207 943.554,-264.088 993.184,-271.873"/>
<polygon fill="#757575" stroke="#757575" points="992.935,-275.377 1003.36,-273.469 994.02,-268.462 992.935,-275.377"/>
</g>
<!-- main/index.js -->
<g id="node29" class="node"><title>main/index.js</title>
<path fill="none" stroke="#c6c5fe" d="M100.833,-256.031C100.833,-256.031 18.1667,-256.031 18.1667,-256.031 14.3333,-256.031 10.5,-252.197 10.5,-248.364 10.5,-248.364 10.5,-240.697 10.5,-240.697 10.5,-236.864 14.3333,-233.031 18.1667,-233.031 18.1667,-233.031 100.833,-233.031 100.833,-233.031 104.667,-233.031 108.5,-236.864 108.5,-240.697 108.5,-240.697 108.5,-248.364 108.5,-248.364 108.5,-252.197 104.667,-256.031 100.833,-256.031"/>
<text text-anchor="middle" x="59.5" y="-240.831" font-family="Arial" font-size="14.00" fill="#c6c5fe">main/index.js</text>
</g>
<!-- main/index.js&#45;&gt;lib/utils.js -->
<g id="edge45" class="edge"><title>main/index.js&#45;&gt;lib/utils.js</title>
<path fill="none" stroke="#757575" d="M108.598,-244.199C240.913,-243.286 609.104,-240.745 738.95,-239.849"/>
<polygon fill="#757575" stroke="#757575" points="738.99,-243.349 748.966,-239.78 738.942,-236.349 738.99,-243.349"/>
</g>
<!-- models/index.js -->
<g id="node30" class="node"><title>models/index.js</title>
<path fill="none" stroke="#c6c5fe" d="M408.833,-373.031C408.833,-373.031 308.167,-373.031 308.167,-373.031 304.333,-373.031 300.5,-369.197 300.5,-365.364 300.5,-365.364 300.5,-357.697 300.5,-357.697 300.5,-353.864 304.333,-350.031 308.167,-350.031 308.167,-350.031 408.833,-350.031 408.833,-350.031 412.667,-350.031 416.5,-353.864 416.5,-357.697 416.5,-357.697 416.5,-365.364 416.5,-365.364 416.5,-369.197 412.667,-373.031 408.833,-373.031"/>
<text text-anchor="middle" x="358.5" y="-357.831" font-family="Arial" font-size="14.00" fill="#c6c5fe">models/index.js</text>
</g>
<!-- main/index.js&#45;&gt;models/index.js -->
<g id="edge46" class="edge"><title>main/index.js&#45;&gt;models/index.js</title>
<path fill="none" stroke="#757575" d="M95.2614,-256.052C103.099,-258.75 111.359,-261.674 119,-264.531 191.313,-291.572 274.611,-326.278 321.156,-345.997"/>
<polygon fill="#757575" stroke="#757575" points="319.941,-349.284 330.514,-349.97 322.676,-342.84 319.941,-349.284"/>
</g>
<!-- routes/index.js -->
<g id="node31" class="node"><title>routes/index.js</title>
<path fill="none" stroke="#c6c5fe" d="M255.333,-175.031C255.333,-175.031 162.667,-175.031 162.667,-175.031 158.833,-175.031 155,-171.197 155,-167.364 155,-167.364 155,-159.697 155,-159.697 155,-155.864 158.833,-152.031 162.667,-152.031 162.667,-152.031 255.333,-152.031 255.333,-152.031 259.167,-152.031 263,-155.864 263,-159.697 263,-159.697 263,-167.364 263,-167.364 263,-171.197 259.167,-175.031 255.333,-175.031"/>
<text text-anchor="middle" x="209" y="-159.831" font-family="Arial" font-size="14.00" fill="#c6c5fe">routes/index.js</text>
</g>
<!-- main/index.js&#45;&gt;routes/index.js -->
<g id="edge47" class="edge"><title>main/index.js&#45;&gt;routes/index.js</title>
<path fill="none" stroke="#757575" d="M81.6332,-232.926C106.935,-219.031 149.476,-195.669 178.13,-179.934"/>
<polygon fill="#757575" stroke="#757575" points="179.825,-182.996 186.906,-175.115 176.456,-176.86 179.825,-182.996"/>
</g>
<!-- models/Article.js -->
<g id="node32" class="node"><title>models/Article.js</title>
<path fill="none" stroke="#cfffac" d="M599.333,-947.031C599.333,-947.031 492.667,-947.031 492.667,-947.031 488.833,-947.031 485,-943.197 485,-939.364 485,-939.364 485,-931.697 485,-931.697 485,-927.864 488.833,-924.031 492.667,-924.031 492.667,-924.031 599.333,-924.031 599.333,-924.031 603.167,-924.031 607,-927.864 607,-931.697 607,-931.697 607,-939.364 607,-939.364 607,-943.197 603.167,-947.031 599.333,-947.031"/>
<text text-anchor="middle" x="546" y="-931.831" font-family="Arial" font-size="14.00" fill="#cfffac">models/Article.js</text>
</g>
<!-- models/index.js&#45;&gt;models/Article.js -->
<g id="edge51" class="edge"><title>models/index.js&#45;&gt;models/Article.js</title>
<path fill="none" stroke="#757575" d="M359.776,-373.066C361.742,-445.18 375.888,-833.626 454,-915.531 459.938,-921.757 467.336,-926.259 475.332,-929.485"/>
<polygon fill="#757575" stroke="#757575" points="474.348,-932.846 484.942,-932.713 476.576,-926.211 474.348,-932.846"/>
</g>
<!-- models/Comment.js -->
<g id="node33" class="node"><title>models/Comment.js</title>
<path fill="none" stroke="#c6c5fe" d="M610.333,-291.031C610.333,-291.031 481.667,-291.031 481.667,-291.031 477.833,-291.031 474,-287.197 474,-283.364 474,-283.364 474,-275.697 474,-275.697 474,-271.864 477.833,-268.031 481.667,-268.031 481.667,-268.031 610.333,-268.031 610.333,-268.031 614.167,-268.031 618,-271.864 618,-275.697 618,-275.697 618,-283.364 618,-283.364 618,-287.197 614.167,-291.031 610.333,-291.031"/>
<text text-anchor="middle" x="546" y="-275.831" font-family="Arial" font-size="14.00" fill="#c6c5fe">models/Comment.js</text>
</g>
<!-- models/index.js&#45;&gt;models/Comment.js -->
<g id="edge52" class="edge"><title>models/index.js&#45;&gt;models/Comment.js</title>
<path fill="none" stroke="#757575" d="M373.608,-349.87C391.3,-335.84 423.075,-312.551 454,-299.531 458.815,-297.504 463.863,-295.67 469.01,-294.012"/>
<polygon fill="#757575" stroke="#757575" points="470.407,-297.248 478.991,-291.039 468.408,-290.54 470.407,-297.248"/>
</g>
<!-- models/Tag.js -->
<g id="node34" class="node"><title>models/Tag.js</title>
<path fill="none" stroke="#cfffac" d="M590.833,-373.031C590.833,-373.031 501.167,-373.031 501.167,-373.031 497.333,-373.031 493.5,-369.197 493.5,-365.364 493.5,-365.364 493.5,-357.697 493.5,-357.697 493.5,-353.864 497.333,-350.031 501.167,-350.031 501.167,-350.031 590.833,-350.031 590.833,-350.031 594.667,-350.031 598.5,-353.864 598.5,-357.697 598.5,-357.697 598.5,-365.364 598.5,-365.364 598.5,-369.197 594.667,-373.031 590.833,-373.031"/>
<text text-anchor="middle" x="546" y="-357.831" font-family="Arial" font-size="14.00" fill="#cfffac">models/Tag.js</text>
</g>
<!-- models/index.js&#45;&gt;models/Tag.js -->
<g id="edge53" class="edge"><title>models/index.js&#45;&gt;models/Tag.js</title>
<path fill="none" stroke="#757575" d="M416.67,-361.531C437.807,-361.531 461.849,-361.531 483.365,-361.531"/>
<polygon fill="#757575" stroke="#757575" points="483.376,-365.031 493.376,-361.531 483.376,-358.031 483.376,-365.031"/>
</g>
<!-- models/User.js -->
<g id="node35" class="node"><title>models/User.js</title>
<path fill="none" stroke="#c6c5fe" d="M593.833,-414.031C593.833,-414.031 498.167,-414.031 498.167,-414.031 494.333,-414.031 490.5,-410.197 490.5,-406.364 490.5,-406.364 490.5,-398.697 490.5,-398.697 490.5,-394.864 494.333,-391.031 498.167,-391.031 498.167,-391.031 593.833,-391.031 593.833,-391.031 597.667,-391.031 601.5,-394.864 601.5,-398.697 601.5,-398.697 601.5,-406.364 601.5,-406.364 601.5,-410.197 597.667,-414.031 593.833,-414.031"/>
<text text-anchor="middle" x="546" y="-398.831" font-family="Arial" font-size="14.00" fill="#c6c5fe">models/User.js</text>
</g>
<!-- models/index.js&#45;&gt;models/User.js -->
<g id="edge54" class="edge"><title>models/index.js&#45;&gt;models/User.js</title>
<path fill="none" stroke="#757575" d="M411.666,-373.061C433.789,-377.95 459.75,-383.688 482.856,-388.795"/>
<polygon fill="#757575" stroke="#757575" points="482.385,-392.276 492.905,-391.017 483.896,-385.441 482.385,-392.276"/>
</g>
<!-- routes/index.js&#45;&gt;lib/utils.js -->
<g id="edge58" class="edge"><title>routes/index.js&#45;&gt;lib/utils.js</title>
<path fill="none" stroke="#757575" d="M221.649,-151.803C237.514,-136.75 267.559,-111.403 299,-101.531 349.46,-85.6875 365.788,-93.0946 418,-101.531 548.763,-122.659 692.78,-191.401 754.35,-223.165"/>
<polygon fill="#757575" stroke="#757575" points="753.023,-226.42 763.509,-227.932 756.255,-220.211 753.023,-226.42"/>
</g>
<!-- routes/articles.js -->
<g id="node36" class="node"><title>routes/articles.js</title>
<path fill="none" stroke="#c6c5fe" d="M410.333,-54.0308C410.333,-54.0308 306.667,-54.0308 306.667,-54.0308 302.833,-54.0308 299,-50.1975 299,-46.3642 299,-46.3642 299,-38.6975 299,-38.6975 299,-34.8642 302.833,-31.0308 306.667,-31.0308 306.667,-31.0308 410.333,-31.0308 410.333,-31.0308 414.167,-31.0308 418,-34.8642 418,-38.6975 418,-38.6975 418,-46.3642 418,-46.3642 418,-50.1975 414.167,-54.0308 410.333,-54.0308"/>
<text text-anchor="middle" x="358.5" y="-38.8308" font-family="Arial" font-size="14.00" fill="#c6c5fe">routes/articles.js</text>
</g>
<!-- routes/index.js&#45;&gt;routes/articles.js -->
<g id="edge59" class="edge"><title>routes/index.js&#45;&gt;routes/articles.js</title>
<path fill="none" stroke="#757575" d="M218.405,-151.884C232.944,-132.423 264.557,-93.0216 299,-68.5308 304.231,-64.8114 310.079,-61.4469 315.999,-58.4666"/>
<polygon fill="#757575" stroke="#757575" points="317.722,-61.5243 325.284,-54.1035 314.745,-55.1889 317.722,-61.5243"/>
</g>
<!-- routes/home.js -->
<g id="node38" class="node"><title>routes/home.js</title>
<path fill="none" stroke="#cfffac" d="M405.833,-134.031C405.833,-134.031 311.167,-134.031 311.167,-134.031 307.333,-134.031 303.5,-130.197 303.5,-126.364 303.5,-126.364 303.5,-118.697 303.5,-118.697 303.5,-114.864 307.333,-111.031 311.167,-111.031 311.167,-111.031 405.833,-111.031 405.833,-111.031 409.667,-111.031 413.5,-114.864 413.5,-118.697 413.5,-118.697 413.5,-126.364 413.5,-126.364 413.5,-130.197 409.667,-134.031 405.833,-134.031"/>
<text text-anchor="middle" x="358.5" y="-118.831" font-family="Arial" font-size="14.00" fill="#cfffac">routes/home.js</text>
</g>
<!-- routes/index.js&#45;&gt;routes/home.js -->
<g id="edge60" class="edge"><title>routes/index.js&#45;&gt;routes/home.js</title>
<path fill="none" stroke="#757575" d="M251.479,-152.001C268.519,-147.265 288.42,-141.733 306.35,-136.749"/>
<polygon fill="#757575" stroke="#757575" points="307.379,-140.095 316.077,-134.045 305.504,-133.351 307.379,-140.095"/>
</g>
<!-- routes/session.js -->
<g id="node39" class="node"><title>routes/session.js</title>
<path fill="none" stroke="#c6c5fe" d="M600.333,-332.031C600.333,-332.031 491.667,-332.031 491.667,-332.031 487.833,-332.031 484,-328.197 484,-324.364 484,-324.364 484,-316.697 484,-316.697 484,-312.864 487.833,-309.031 491.667,-309.031 491.667,-309.031 600.333,-309.031 600.333,-309.031 604.167,-309.031 608,-312.864 608,-316.697 608,-316.697 608,-324.364 608,-324.364 608,-328.197 604.167,-332.031 600.333,-332.031"/>
<text text-anchor="middle" x="546" y="-316.831" font-family="Arial" font-size="14.00" fill="#c6c5fe">routes/session.js</text>
</g>
<!-- routes/index.js&#45;&gt;routes/session.js -->
<g id="edge61" class="edge"><title>routes/index.js&#45;&gt;routes/session.js</title>
<path fill="none" stroke="#757575" d="M225.293,-175.061C242.667,-187.909 272.104,-208.925 299,-224.531 365.194,-262.939 381.819,-274.101 454,-299.531 461.204,-302.069 468.839,-304.384 476.501,-306.472"/>
<polygon fill="#757575" stroke="#757575" points="475.632,-309.863 486.191,-308.996 477.396,-303.089 475.632,-309.863"/>
</g>
<!-- routes/tags.js -->
<g id="node40" class="node"><title>routes/tags.js</title>
<path fill="none" stroke="#c6c5fe" d="M401.333,-216.031C401.333,-216.031 315.667,-216.031 315.667,-216.031 311.833,-216.031 308,-212.197 308,-208.364 308,-208.364 308,-200.697 308,-200.697 308,-196.864 311.833,-193.031 315.667,-193.031 315.667,-193.031 401.333,-193.031 401.333,-193.031 405.167,-193.031 409,-196.864 409,-200.697 409,-200.697 409,-208.364 409,-208.364 409,-212.197 405.167,-216.031 401.333,-216.031"/>
<text text-anchor="middle" x="358.5" y="-200.831" font-family="Arial" font-size="14.00" fill="#c6c5fe">routes/tags.js</text>
</g>
<!-- routes/index.js&#45;&gt;routes/tags.js -->
<g id="edge62" class="edge"><title>routes/index.js&#45;&gt;routes/tags.js</title>
<path fill="none" stroke="#757575" d="M251.479,-175.061C268.519,-179.797 288.42,-185.329 306.35,-190.313"/>
<polygon fill="#757575" stroke="#757575" points="305.504,-193.71 316.077,-193.017 307.379,-186.966 305.504,-193.71"/>
</g>
<!-- routes/users.js -->
<g id="node41" class="node"><title>routes/users.js</title>
<path fill="none" stroke="#c6c5fe" d="M405.833,-175.031C405.833,-175.031 311.167,-175.031 311.167,-175.031 307.333,-175.031 303.5,-171.197 303.5,-167.364 303.5,-167.364 303.5,-159.697 303.5,-159.697 303.5,-155.864 307.333,-152.031 311.167,-152.031 311.167,-152.031 405.833,-152.031 405.833,-152.031 409.667,-152.031 413.5,-155.864 413.5,-159.697 413.5,-159.697 413.5,-167.364 413.5,-167.364 413.5,-171.197 409.667,-175.031 405.833,-175.031"/>
<text text-anchor="middle" x="358.5" y="-159.831" font-family="Arial" font-size="14.00" fill="#c6c5fe">routes/users.js</text>
</g>
<!-- routes/index.js&#45;&gt;routes/users.js -->
<g id="edge63" class="edge"><title>routes/index.js&#45;&gt;routes/users.js</title>
<path fill="none" stroke="#757575" d="M263.251,-163.531C272.927,-163.531 283.116,-163.531 293.073,-163.531"/>
<polygon fill="#757575" stroke="#757575" points="293.336,-167.031 303.336,-163.531 293.336,-160.031 293.336,-167.031"/>
</g>
<!-- models/Comment.js&#45;&gt;lib/utils.js -->
<g id="edge48" class="edge"><title>models/Comment.js&#45;&gt;lib/utils.js</title>
<path fill="none" stroke="#757575" d="M615.52,-268.015C655.141,-261.356 703.926,-253.157 738.965,-247.268"/>
<polygon fill="#757575" stroke="#757575" points="739.637,-250.704 748.918,-245.595 738.476,-243.801 739.637,-250.704"/>
</g>
<!-- models/User.js&#45;&gt;lib/secure.js -->
<g id="edge49" class="edge"><title>models/User.js&#45;&gt;lib/secure.js</title>
<path fill="none" stroke="#757575" d="M601.602,-393.125C640.026,-386.505 691.268,-377.678 729.82,-371.037"/>
<polygon fill="#757575" stroke="#757575" points="730.572,-374.459 739.833,-369.312 729.384,-367.56 730.572,-374.459"/>
</g>
<!-- models/User.js&#45;&gt;lib/utils.js -->
<g id="edge50" class="edge"><title>models/User.js&#45;&gt;lib/utils.js</title>
<path fill="none" stroke="#757575" d="M601.581,-395.717C614.129,-392.615 627.004,-388.1 638,-381.531 658.818,-369.094 657.005,-357.829 674,-340.531 703.76,-310.239 740.618,-277.58 763.473,-257.846"/>
<polygon fill="#757575" stroke="#757575" points="765.918,-260.36 771.221,-251.188 761.356,-255.051 765.918,-260.36"/>
</g>
<!-- routes/articles.js&#45;&gt;lib/utils.js -->
<g id="edge55" class="edge"><title>routes/articles.js&#45;&gt;lib/utils.js</title>
<path fill="none" stroke="#757575" d="M388.016,-30.9005C440.847,-11.3126 556.017,22.0672 638,-21.5308 718.203,-64.1825 762.542,-172.253 778.311,-218.264"/>
<polygon fill="#757575" stroke="#757575" points="775.011,-219.434 781.479,-227.826 781.656,-217.233 775.011,-219.434"/>
</g>
<!-- routes/comments.js -->
<g id="node37" class="node"><title>routes/comments.js</title>
<path fill="none" stroke="#c6c5fe" d="M608.833,-54.0308C608.833,-54.0308 483.167,-54.0308 483.167,-54.0308 479.333,-54.0308 475.5,-50.1975 475.5,-46.3642 475.5,-46.3642 475.5,-38.6975 475.5,-38.6975 475.5,-34.8642 479.333,-31.0308 483.167,-31.0308 483.167,-31.0308 608.833,-31.0308 608.833,-31.0308 612.667,-31.0308 616.5,-34.8642 616.5,-38.6975 616.5,-38.6975 616.5,-46.3642 616.5,-46.3642 616.5,-50.1975 612.667,-54.0308 608.833,-54.0308"/>
<text text-anchor="middle" x="546" y="-38.8308" font-family="Arial" font-size="14.00" fill="#c6c5fe">routes/comments.js</text>
</g>
<!-- routes/articles.js&#45;&gt;routes/comments.js -->
<g id="edge56" class="edge"><title>routes/articles.js&#45;&gt;routes/comments.js</title>
<path fill="none" stroke="#757575" d="M418.193,-42.5308C433.083,-42.5308 449.331,-42.5308 465.077,-42.5308"/>
<polygon fill="#757575" stroke="#757575" points="465.333,-46.0309 475.333,-42.5308 465.333,-39.0309 465.333,-46.0309"/>
</g>
<!-- routes/comments.js&#45;&gt;lib/utils.js -->
<g id="edge57" class="edge"><title>routes/comments.js&#45;&gt;lib/utils.js</title>
<path fill="none" stroke="#757575" d="M606.447,-54.0967C617.44,-57.7109 628.452,-62.4175 638,-68.5308 700.65,-108.644 751.285,-183.422 773.224,-219.303"/>
<polygon fill="#757575" stroke="#757575" points="770.259,-221.164 778.406,-227.937 776.261,-217.562 770.259,-221.164"/>
</g>
<!-- routes/session.js&#45;&gt;lib/secure.js -->
<g id="edge64" class="edge"><title>routes/session.js&#45;&gt;lib/secure.js</title>
<path fill="none" stroke="#757575" d="M608.291,-331.089C645.807,-337.552 693.421,-345.755 729.769,-352.016"/>
<polygon fill="#757575" stroke="#757575" points="729.255,-355.479 739.705,-353.728 730.444,-348.581 729.255,-355.479"/>
</g>
<!-- routes/session.js&#45;&gt;lib/utils.js -->
<g id="edge65" class="edge"><title>routes/session.js&#45;&gt;lib/utils.js</title>
<path fill="none" stroke="#757575" d="M603.692,-308.934C615.141,-306.177 627.027,-303.011 638,-299.531 677.54,-286.989 721.391,-268.458 750.821,-255.314"/>
<polygon fill="#757575" stroke="#757575" points="752.541,-258.378 760.221,-251.08 749.666,-251.996 752.541,-258.378"/>
</g>
<!-- routes/tags.js&#45;&gt;lib/utils.js -->
<g id="edge66" class="edge"><title>routes/tags.js&#45;&gt;lib/utils.js</title>
<path fill="none" stroke="#757575" d="M409.077,-207.973C464.79,-211.911 557.922,-218.699 638,-225.531 671.67,-228.403 709.639,-232.029 738.553,-234.871"/>
<polygon fill="#757575" stroke="#757575" points="738.476,-238.381 748.771,-235.88 739.164,-231.415 738.476,-238.381"/>
</g>
<!-- routes/users.js&#45;&gt;lib/utils.js -->
<g id="edge67" class="edge"><title>routes/users.js&#45;&gt;lib/utils.js</title>
<path fill="none" stroke="#757575" d="M413.542,-171.483C469.75,-179.936 560.236,-194.057 638,-208.531 671.947,-214.849 710.097,-222.923 739.024,-229.247"/>
<polygon fill="#757575" stroke="#757575" points="738.331,-232.678 748.849,-231.405 739.833,-225.841 738.331,-232.678"/>
</g>
</g>
</svg>
